<svg xmlns="http://www.w3.org/2000/svg" width="45" height="45" viewBox="0 0 45 45" fill="none">
  <path d="M22.5 0C10.0748 0 0 10.0748 0 22.5C0 34.9252 10.0748 45 22.5 45C34.9252 45 45 34.9252 45 22.5C45 10.0748 34.9252 0 22.5 0ZM32.2182 15.1523L21.6412 29.8175C21.4933 30.0239 21.2985 30.192 21.0727 30.308C20.8469 30.4239 20.5967 30.4844 20.3429 30.4844C20.0891 30.4844 19.8389 30.4239 19.6131 30.308C19.3874 30.192 19.1925 30.0239 19.0446 29.8175L12.7818 21.139C12.591 20.8728 12.7818 20.5011 13.1083 20.5011H15.4637C15.976 20.5011 16.4632 20.7472 16.7645 21.1691L20.3404 26.1311L28.2355 15.1825C28.5368 14.7656 29.019 14.5145 29.5363 14.5145H31.8917C32.2182 14.5145 32.409 14.8862 32.2182 15.1523Z" fill="white"/>
</svg>