<svg width="1428" height="1324" viewBox="0 0 1428 1324" fill="none" xmlns="http://www.w3.org/2000/svg">
<g clip-path="url(#clip0_29_2598)">
<path d="M562 675.82V1046L373 1357.62" stroke="#53585E"/>
<path d="M901 677.309V1047.49L1082 1359.11" stroke="#53585E"/>
<path d="M622 678.798V1044.51L511 1354.15" stroke="#53585E"/>
<path d="M678 680.782V1046L627.5 1371.51" stroke="#53585E"/>
<path d="M841.723 672.347V1038.06L976 1359.11" stroke="#53585E"/>
<path d="M785.501 674.331V1039.55L836.5 1357.62" stroke="#53585E"/>
<path d="M732 680.782V1373.5" stroke="#53585E"/>
<path d="M901.499 760.673V390.496L1204.5 -54.61" stroke="#53585E"/>
<path d="M841.5 757.695V391.984L1033 -69.0006" stroke="#53585E"/>
<path d="M785.498 755.711V390.496L863 -69.0001" stroke="#53585E"/>
<path d="M562.646 767.124V397.261L257.5 -58.0832" stroke="#53585E"/>
<path d="M621.775 764.146V398.435L441.5 -53.1213" stroke="#53585E"/>
<path d="M677.995 762.162V396.947L603.998 -54.6095" stroke="#53585E"/>
<path d="M731.498 755.711L731.498 -51.1363" stroke="#53585E"/>
<path d="M0 -42.2051L486 404.389L494.5 1043.02L223.5 1353.15" stroke="#53585E"/>
<path d="M1467.5 -53.1211L974.124 405.383L966 1044.01L1225 1354.15" stroke="#53585E"/>
<path d="M12 217.813L419 417.789V1040.54L17.5 1324.38" stroke="#53585E"/>
<path d="M1428 218.805L1038 418.78V1041.53L1422.73 1325.37" stroke="#53585E"/>
</g>
<defs>
<clipPath id="clip0_29_2598">
<rect width="1428" height="1324" fill="white"/>
</clipPath>
</defs>
</svg>
