<svg width="71" height="75" viewBox="0 0 71 75" fill="none" xmlns="http://www.w3.org/2000/svg">
<g filter="url(#filter0_d_28_14601)">
<path d="M48.8131 1.0617C48.4513 0.675062 47.9612 0.45788 47.4502 0.457764L23.4592 0.457764C22.9482 0.45788 22.4581 0.675062 22.0964 1.0617L5.13204 19.2378C4.77117 19.6254 4.56847 20.1505 4.56836 20.698V46.4026C4.56847 46.9501 4.77117 47.4752 5.13204 47.8628L22.0964 66.0389C22.4581 66.4255 22.9482 66.6427 23.4592 66.6428H47.4502C47.9612 66.6427 48.4513 66.4255 48.8131 66.0389L65.7774 47.8628C66.1383 47.4752 66.341 46.9501 66.3411 46.4026V20.698C66.341 20.1505 66.1383 19.6254 65.7774 19.2378L48.8131 1.0617ZM35.4547 17.004C37.5202 17.004 39.1379 18.9151 38.9294 21.1199L37.5782 35.6269C37.5328 36.1968 37.2894 36.7276 36.8962 37.1145C36.503 37.5014 35.9886 37.716 35.4547 37.716C34.9209 37.716 34.4065 37.5014 34.0133 37.1145C33.6201 36.7276 33.3767 36.1968 33.3313 35.6269L31.98 21.1199C31.9315 20.5997 31.9852 20.0743 32.1377 19.5777C32.2902 19.081 32.5381 18.6241 32.8655 18.2364C33.1928 17.8486 33.5923 17.5386 34.0383 17.3264C34.4842 17.1141 34.9667 17.0043 35.4547 17.004ZM35.4624 41.8234C36.4864 41.8234 37.4684 42.2592 38.1924 43.035C38.9165 43.8108 39.3232 44.8629 39.3232 45.96C39.3232 47.0571 38.9165 48.1092 38.1924 48.885C37.4684 49.6607 36.4864 50.0966 35.4624 50.0966C34.4385 50.0966 33.4565 49.6607 32.7325 48.885C32.0084 48.1092 31.6016 47.0571 31.6016 45.96C31.6016 44.8629 32.0084 43.8108 32.7325 43.035C33.4565 42.2592 34.4385 41.8234 35.4624 41.8234Z" fill="#B46D03"/>
<path d="M48.8131 1.0617C48.4513 0.675062 47.9612 0.45788 47.4502 0.457764L23.4592 0.457764C22.9482 0.45788 22.4581 0.675062 22.0964 1.0617L5.13204 19.2378C4.77117 19.6254 4.56847 20.1505 4.56836 20.698V46.4026C4.56847 46.9501 4.77117 47.4752 5.13204 47.8628L22.0964 66.0389C22.4581 66.4255 22.9482 66.6427 23.4592 66.6428H47.4502C47.9612 66.6427 48.4513 66.4255 48.8131 66.0389L65.7774 47.8628C66.1383 47.4752 66.341 46.9501 66.3411 46.4026V20.698C66.341 20.1505 66.1383 19.6254 65.7774 19.2378L48.8131 1.0617ZM35.4547 17.004C37.5202 17.004 39.1379 18.9151 38.9294 21.1199L37.5782 35.6269C37.5328 36.1968 37.2894 36.7276 36.8962 37.1145C36.503 37.5014 35.9886 37.716 35.4547 37.716C34.9209 37.716 34.4065 37.5014 34.0133 37.1145C33.6201 36.7276 33.3767 36.1968 33.3313 35.6269L31.98 21.1199C31.9315 20.5997 31.9852 20.0743 32.1377 19.5777C32.2902 19.081 32.5381 18.6241 32.8655 18.2364C33.1928 17.8486 33.5923 17.5386 34.0383 17.3264C34.4842 17.1141 34.9667 17.0043 35.4547 17.004ZM35.4624 41.8234C36.4864 41.8234 37.4684 42.2592 38.1924 43.035C38.9165 43.8108 39.3232 44.8629 39.3232 45.96C39.3232 47.0571 38.9165 48.1092 38.1924 48.885C37.4684 49.6607 36.4864 50.0966 35.4624 50.0966C34.4385 50.0966 33.4565 49.6607 32.7325 48.885C32.0084 48.1092 31.6016 47.0571 31.6016 45.96C31.6016 44.8629 32.0084 43.8108 32.7325 43.035C33.4565 42.2592 34.4385 41.8234 35.4624 41.8234Z" stroke="black"/>
</g>
<defs>
<filter id="filter0_d_28_14601" x="0.568359" y="0.457764" width="69.7734" height="74.1851" filterUnits="userSpaceOnUse" color-interpolation-filters="sRGB">
<feFlood flood-opacity="0" result="BackgroundImageFix"/>
<feColorMatrix in="SourceAlpha" type="matrix" values="0 0 0 0 0 0 0 0 0 0 0 0 0 0 0 0 0 0 127 0" result="hardAlpha"/>
<feOffset dy="4"/>
<feGaussianBlur stdDeviation="2"/>
<feComposite in2="hardAlpha" operator="out"/>
<feColorMatrix type="matrix" values="0 0 0 0 0 0 0 0 0 0 0 0 0 0 0 0 0 0 0.25 0"/>
<feBlend mode="normal" in2="BackgroundImageFix" result="effect1_dropShadow_28_14601"/>
<feBlend mode="normal" in="SourceGraphic" in2="effect1_dropShadow_28_14601" result="shape"/>
</filter>
</defs>
</svg>
