<svg width="1847" height="128" viewBox="0 0 1847 128" fill="none" xmlns="http://www.w3.org/2000/svg">
<line x1="178.861" y1="8.22807" x2="60.3602" y2="126.729" stroke="#51565C" stroke-opacity="0.23"/>
<line x1="1052.49" y1="4.22807" x2="933.993" y2="122.729" stroke="#51565C" stroke-opacity="0.23"/>
<line x1="615.494" y1="6.22807" x2="496.993" y2="124.729" stroke="#51565C" stroke-opacity="0.23"/>
<line x1="1489.13" y1="2.22807" x2="1370.63" y2="120.729" stroke="#51565C" stroke-opacity="0.23"/>
<line x1="397.494" y1="7.22807" x2="278.993" y2="125.729" stroke="#51565C" stroke-opacity="0.23"/>
<line x1="1271.13" y1="3.22807" x2="1152.63" y2="121.729" stroke="#51565C" stroke-opacity="0.23"/>
<line x1="834.127" y1="5.22807" x2="715.626" y2="123.729" stroke="#51565C" stroke-opacity="0.23"/>
<line x1="1707.76" y1="1.22807" x2="1589.26" y2="119.729" stroke="#51565C" stroke-opacity="0.23"/>
<line x1="258.494" y1="7.35355" x2="139.993" y2="125.855" stroke="#51565C" stroke-opacity="0.23"/>
<line x1="1132.13" y1="3.35355" x2="1013.63" y2="121.855" stroke="#51565C" stroke-opacity="0.23"/>
<line x1="695.127" y1="5.35355" x2="576.626" y2="123.855" stroke="#51565C" stroke-opacity="0.23"/>
<line x1="1568.76" y1="1.35355" x2="1450.26" y2="119.855" stroke="#51565C" stroke-opacity="0.23"/>
<line x1="477.127" y1="6.35355" x2="358.626" y2="124.855" stroke="#51565C" stroke-opacity="0.23"/>
<line x1="1350.76" y1="2.35355" x2="1232.26" y2="120.855" stroke="#51565C" stroke-opacity="0.23"/>
<line x1="913.76" y1="4.35355" x2="795.259" y2="122.855" stroke="#51565C" stroke-opacity="0.23"/>
<line x1="1787.39" y1="0.353553" x2="1668.89" y2="118.855" stroke="#51565C" stroke-opacity="0.23"/>
<line x1="317.494" y1="8.35355" x2="198.993" y2="126.855" stroke="#51565C" stroke-opacity="0.23"/>
<line x1="1191.13" y1="4.35355" x2="1072.63" y2="122.855" stroke="#51565C" stroke-opacity="0.23"/>
<line x1="754.127" y1="6.35355" x2="635.626" y2="124.855" stroke="#51565C" stroke-opacity="0.23"/>
<line x1="1627.76" y1="2.35355" x2="1509.26" y2="120.855" stroke="#51565C" stroke-opacity="0.23"/>
<line x1="536.127" y1="7.35355" x2="417.626" y2="125.855" stroke="#51565C" stroke-opacity="0.23"/>
<line x1="1409.76" y1="3.35355" x2="1291.26" y2="121.855" stroke="#51565C" stroke-opacity="0.23"/>
<line x1="972.76" y1="5.35355" x2="854.259" y2="123.855" stroke="#51565C" stroke-opacity="0.23"/>
<line x1="1846.39" y1="1.35355" x2="1727.89" y2="119.855" stroke="#51565C" stroke-opacity="0.23"/>
<line x1="158.856" y1="8.22807" x2="40.3544" y2="126.729" stroke="#51565C" stroke-opacity="0.23"/>
<line x1="1032.49" y1="4.22807" x2="913.987" y2="122.729" stroke="#51565C" stroke-opacity="0.23"/>
<line x1="595.488" y1="6.22807" x2="476.987" y2="124.729" stroke="#51565C" stroke-opacity="0.23"/>
<line x1="1469.12" y1="2.22807" x2="1350.62" y2="120.729" stroke="#51565C" stroke-opacity="0.23"/>
<line x1="377.488" y1="7.22807" x2="258.987" y2="125.729" stroke="#51565C" stroke-opacity="0.23"/>
<line x1="1251.12" y1="3.22807" x2="1132.62" y2="121.729" stroke="#51565C" stroke-opacity="0.23"/>
<line x1="814.121" y1="5.22807" x2="695.62" y2="123.729" stroke="#51565C" stroke-opacity="0.23"/>
<line x1="1687.75" y1="1.22807" x2="1569.25" y2="119.729" stroke="#51565C" stroke-opacity="0.23"/>
<line x1="238.488" y1="7.35355" x2="119.987" y2="125.855" stroke="#51565C" stroke-opacity="0.23"/>
<line x1="1112.12" y1="3.35355" x2="993.62" y2="121.855" stroke="#51565C" stroke-opacity="0.23"/>
<line x1="675.121" y1="5.35355" x2="556.62" y2="123.855" stroke="#51565C" stroke-opacity="0.23"/>
<line x1="1548.75" y1="1.35355" x2="1430.25" y2="119.855" stroke="#51565C" stroke-opacity="0.23"/>
<line x1="457.121" y1="6.35355" x2="338.62" y2="124.855" stroke="#51565C" stroke-opacity="0.23"/>
<line x1="1330.75" y1="2.35355" x2="1212.25" y2="120.855" stroke="#51565C" stroke-opacity="0.23"/>
<line x1="893.754" y1="4.35355" x2="775.253" y2="122.855" stroke="#51565C" stroke-opacity="0.23"/>
<line x1="1767.39" y1="0.353553" x2="1648.89" y2="118.855" stroke="#51565C" stroke-opacity="0.23"/>
<line x1="297.488" y1="8.35355" x2="178.987" y2="126.855" stroke="#51565C" stroke-opacity="0.23"/>
<line x1="1171.12" y1="4.35355" x2="1052.62" y2="122.855" stroke="#51565C" stroke-opacity="0.23"/>
<line x1="734.121" y1="6.35355" x2="615.62" y2="124.855" stroke="#51565C" stroke-opacity="0.23"/>
<line x1="1607.75" y1="2.35355" x2="1489.25" y2="120.855" stroke="#51565C" stroke-opacity="0.23"/>
<line x1="516.121" y1="7.35355" x2="397.62" y2="125.855" stroke="#51565C" stroke-opacity="0.23"/>
<line x1="1389.75" y1="3.35355" x2="1271.25" y2="121.855" stroke="#51565C" stroke-opacity="0.23"/>
<line x1="952.754" y1="5.35355" x2="834.253" y2="123.855" stroke="#51565C" stroke-opacity="0.23"/>
<line x1="1826.39" y1="1.35355" x2="1707.89" y2="119.855" stroke="#51565C" stroke-opacity="0.23"/>
<line x1="138.861" y1="8.22807" x2="20.3602" y2="126.729" stroke="#51565C" stroke-opacity="0.23"/>
<line x1="1012.49" y1="4.22807" x2="893.993" y2="122.729" stroke="#51565C" stroke-opacity="0.23"/>
<line x1="575.494" y1="6.22807" x2="456.993" y2="124.729" stroke="#51565C" stroke-opacity="0.23"/>
<line x1="1449.13" y1="2.22807" x2="1330.63" y2="120.729" stroke="#51565C" stroke-opacity="0.23"/>
<line x1="357.494" y1="7.22807" x2="238.993" y2="125.729" stroke="#51565C" stroke-opacity="0.23"/>
<line x1="1231.13" y1="3.22807" x2="1112.63" y2="121.729" stroke="#51565C" stroke-opacity="0.23"/>
<line x1="794.127" y1="5.22807" x2="675.626" y2="123.729" stroke="#51565C" stroke-opacity="0.23"/>
<line x1="1667.76" y1="1.22807" x2="1549.26" y2="119.729" stroke="#51565C" stroke-opacity="0.23"/>
<line x1="218.494" y1="7.35355" x2="99.9931" y2="125.855" stroke="#51565C" stroke-opacity="0.23"/>
<line x1="1092.13" y1="3.35355" x2="973.626" y2="121.855" stroke="#51565C" stroke-opacity="0.23"/>
<line x1="655.127" y1="5.35355" x2="536.626" y2="123.855" stroke="#51565C" stroke-opacity="0.23"/>
<line x1="1528.76" y1="1.35355" x2="1410.26" y2="119.855" stroke="#51565C" stroke-opacity="0.23"/>
<line x1="437.127" y1="6.35355" x2="318.626" y2="124.855" stroke="#51565C" stroke-opacity="0.23"/>
<line x1="1310.76" y1="2.35355" x2="1192.26" y2="120.855" stroke="#51565C" stroke-opacity="0.23"/>
<line x1="873.76" y1="4.35355" x2="755.259" y2="122.855" stroke="#51565C" stroke-opacity="0.23"/>
<line x1="1747.39" y1="0.353553" x2="1628.89" y2="118.855" stroke="#51565C" stroke-opacity="0.23"/>
<line x1="277.494" y1="8.35355" x2="158.993" y2="126.855" stroke="#51565C" stroke-opacity="0.23"/>
<line x1="1151.13" y1="4.35355" x2="1032.63" y2="122.855" stroke="#51565C" stroke-opacity="0.23"/>
<line x1="714.127" y1="6.35355" x2="595.626" y2="124.855" stroke="#51565C" stroke-opacity="0.23"/>
<line x1="1587.76" y1="2.35355" x2="1469.26" y2="120.855" stroke="#51565C" stroke-opacity="0.23"/>
<line x1="496.127" y1="7.35355" x2="377.626" y2="125.855" stroke="#51565C" stroke-opacity="0.23"/>
<line x1="1369.76" y1="3.35355" x2="1251.26" y2="121.855" stroke="#51565C" stroke-opacity="0.23"/>
<line x1="932.76" y1="5.35355" x2="814.259" y2="123.855" stroke="#51565C" stroke-opacity="0.23"/>
<line x1="1806.39" y1="1.35355" x2="1687.89" y2="119.855" stroke="#51565C" stroke-opacity="0.23"/>
<line x1="118.856" y1="8.22807" x2="0.354388" y2="126.729" stroke="#51565C" stroke-opacity="0.23"/>
<line x1="992.488" y1="4.22807" x2="873.987" y2="122.729" stroke="#51565C" stroke-opacity="0.23"/>
<line x1="555.488" y1="6.22807" x2="436.987" y2="124.729" stroke="#51565C" stroke-opacity="0.23"/>
<line x1="1429.12" y1="2.22807" x2="1310.62" y2="120.729" stroke="#51565C" stroke-opacity="0.23"/>
<line x1="337.488" y1="7.22807" x2="218.987" y2="125.729" stroke="#51565C" stroke-opacity="0.23"/>
<line x1="1211.12" y1="3.22807" x2="1092.62" y2="121.729" stroke="#51565C" stroke-opacity="0.23"/>
<line x1="774.121" y1="5.22807" x2="655.62" y2="123.729" stroke="#51565C" stroke-opacity="0.23"/>
<line x1="1647.75" y1="1.22807" x2="1529.25" y2="119.729" stroke="#51565C" stroke-opacity="0.23"/>
<line x1="198.488" y1="7.35355" x2="79.9872" y2="125.855" stroke="#51565C" stroke-opacity="0.23"/>
<line x1="1072.12" y1="3.35355" x2="953.62" y2="121.855" stroke="#51565C" stroke-opacity="0.23"/>
<line x1="635.121" y1="5.35355" x2="516.62" y2="123.855" stroke="#51565C" stroke-opacity="0.23"/>
<line x1="1508.75" y1="1.35355" x2="1390.25" y2="119.855" stroke="#51565C" stroke-opacity="0.23"/>
<line x1="417.121" y1="6.35355" x2="298.62" y2="124.855" stroke="#51565C" stroke-opacity="0.23"/>
<line x1="1290.75" y1="2.35355" x2="1172.25" y2="120.855" stroke="#51565C" stroke-opacity="0.23"/>
<line x1="853.754" y1="4.35355" x2="735.253" y2="122.855" stroke="#51565C" stroke-opacity="0.23"/>
<line x1="1727.39" y1="0.353553" x2="1608.89" y2="118.855" stroke="#51565C" stroke-opacity="0.23"/>
<line x1="257.488" y1="8.35355" x2="138.987" y2="126.855" stroke="#51565C" stroke-opacity="0.23"/>
<line x1="1131.12" y1="4.35355" x2="1012.62" y2="122.855" stroke="#51565C" stroke-opacity="0.23"/>
<line x1="694.121" y1="6.35355" x2="575.62" y2="124.855" stroke="#51565C" stroke-opacity="0.23"/>
<line x1="1567.75" y1="2.35355" x2="1449.25" y2="120.855" stroke="#51565C" stroke-opacity="0.23"/>
<line x1="476.121" y1="7.35355" x2="357.62" y2="125.855" stroke="#51565C" stroke-opacity="0.23"/>
<line x1="1349.75" y1="3.35355" x2="1231.25" y2="121.855" stroke="#51565C" stroke-opacity="0.23"/>
<line x1="912.754" y1="5.35355" x2="794.253" y2="123.855" stroke="#51565C" stroke-opacity="0.23"/>
<line x1="1786.39" y1="1.35355" x2="1667.89" y2="119.855" stroke="#51565C" stroke-opacity="0.23"/>
</svg>
