<svg width="94" height="92" viewBox="0 0 94 92" fill="none" xmlns="http://www.w3.org/2000/svg">
<g filter="url(#filter0_d_7_3179)">
<ellipse cx="47" cy="42" rx="43" ry="42" fill="#0033AD"/>
<path d="M46.3218 17.1477C47.5268 16.5339 48.9977 17.9577 48.3574 19.1335C47.9856 20.092 46.5759 20.3469 45.8558 19.6163C45.0928 18.9151 45.3416 17.5292 46.3218 17.1477ZM33.3614 18.5122C34.0934 18.2179 35.02 18.873 34.9454 19.6522C35.023 20.4981 33.964 21.1207 33.218 20.7187C32.2294 20.3447 32.3425 18.7774 33.3614 18.5122ZM59.9058 20.7424C58.762 20.6074 58.5809 18.8508 59.6822 18.4971C60.5364 18.0902 61.3201 18.8532 61.445 19.6441C61.2659 20.3194 60.687 20.9377 59.9058 20.7424ZM36.3104 23.9001C37.5341 23.1441 39.2803 24.27 39.0921 25.6583C39.0285 27.0602 37.1222 27.8724 36.0467 26.9247C35.0067 26.1803 35.1643 24.4725 36.3104 23.9001ZM54.9918 24.7023C55.5377 23.328 57.75 23.2864 58.3714 24.6242C58.9856 25.6654 58.2301 26.9546 57.1357 27.3086C55.6861 27.5729 54.3092 26.0423 54.9918 24.7023ZM44.7611 27.2306C44.7492 26.0493 45.8508 25.1691 47.0002 25.0886C47.7626 25.238 48.5935 25.5552 48.9205 26.3066C49.5301 27.3432 48.9888 28.7704 47.8875 29.2461C47.3839 29.5218 46.7884 29.4184 46.24 29.3862C45.4016 28.9842 44.6956 28.1958 44.7611 27.2306ZM25.4871 28.9518C26.6049 28.2806 28.1131 29.5056 27.6899 30.6917C27.4569 31.7177 26.0449 32.1351 25.2377 31.4801C24.3761 30.8664 24.5126 29.3908 25.4871 28.9518ZM66.8755 28.9497C67.8239 28.2304 69.389 29.0555 69.276 30.2251C69.3395 31.2916 67.9864 32.096 67.0449 31.5468C66.008 31.0916 65.9021 29.5334 66.8755 28.9497ZM50.1813 31.0732C51.7465 30.524 53.6055 31.1812 54.4975 32.5442C55.6743 34.2104 55.0481 36.7478 53.222 37.7039C51.3299 38.8347 48.567 37.8762 47.8682 35.8123C47.0748 33.9647 48.2306 31.6524 50.1813 31.0732ZM40.9983 31.2549C42.7329 30.4552 45.0674 31.1261 45.9052 32.8593C46.8913 34.5462 46.1289 36.8952 44.3661 37.7663C42.6011 38.7453 40.111 38.0031 39.2568 36.1919C38.299 34.4404 39.1496 32.0614 40.9983 31.2549ZM31.8035 34.3254C31.9353 33.2338 32.9896 32.5234 34.0533 32.45C35.1994 32.585 36.1149 33.4544 36.2396 34.5873C36.1644 35.7089 35.2771 36.8051 34.0602 36.7983C32.7215 36.9109 31.5478 35.61 31.8035 34.3254ZM58.9621 32.6873C60.3365 31.9059 62.245 33.0434 62.1839 34.5857C62.2782 36.2197 60.166 37.3713 58.7974 36.4128C57.3757 35.6146 57.4865 33.3669 58.9621 32.6873ZM37.2613 38.4464C38.8687 38.0144 40.7067 38.7545 41.4951 40.1976C42.3586 41.6502 42.0056 43.6682 40.6644 44.7336C38.9442 46.2964 35.7716 45.6689 34.8561 43.5362C33.804 41.5811 35.0819 38.961 37.2613 38.4464ZM54.6788 38.4383C56.2415 38.0017 58.0773 38.59 58.9173 39.9805C60.028 41.5708 59.4978 43.9428 57.8442 44.968C56.1121 46.1584 53.4291 45.5334 52.476 43.672C51.3205 41.7466 52.4832 39.0255 54.6788 38.4383ZM26.9226 40.2527C28.3111 39.7397 29.8502 41.2363 29.2877 42.5809C28.9441 43.8059 27.1766 44.2587 26.2635 43.3556C25.1951 42.5075 25.5907 40.6204 26.9226 40.2527ZM64.5584 42.204C64.5183 41.0803 65.3601 40.085 66.5399 40.0229C67.4908 40.1701 68.4154 40.9193 68.3403 41.9305C68.4273 43.2659 66.7798 44.1737 65.6149 43.5462C65.069 43.2751 64.789 42.7281 64.5584 42.204ZM20.0953 40.9123C20.9307 40.5562 21.964 41.2633 21.7732 42.1694C21.7284 43.1954 20.1777 43.5899 19.608 42.7327C19.1046 42.1373 19.4059 41.2193 20.0953 40.9123ZM72.767 40.8918C73.3552 40.4827 74.299 40.7768 74.532 41.448C74.9273 42.181 74.2025 43.1855 73.3577 43.0615C72.1718 43.1671 71.7882 41.4018 72.767 40.8918ZM41.7986 45.8169C43.9968 45.2585 46.3597 47.0489 46.3735 49.2597C46.517 51.4936 44.1897 53.4746 41.9396 52.9587C40.2003 52.6852 38.8356 51.0487 38.8919 49.332C38.8872 47.6901 40.1558 46.1641 41.7986 45.8169ZM50.5039 45.8123C52.735 45.2032 55.1684 47.0257 55.133 49.2875C55.2508 51.4801 52.9962 53.3945 50.7931 52.9595C48.7198 52.6976 47.1901 50.4728 47.7689 48.5077C48.0611 47.1982 49.1812 46.1333 50.5039 45.8123ZM33.7194 47.1731C35.2633 46.9158 36.7106 48.5982 36.0845 50.03C35.6279 51.5557 33.3545 51.9697 32.3494 50.7233C31.1704 49.5264 32.0506 47.3383 33.7194 47.1731ZM59.249 47.2403C60.6257 46.6771 62.3155 47.8403 62.2096 49.2996C62.2649 50.9061 60.1787 52.0139 58.8325 51.0762C57.3077 50.2344 57.5852 47.7568 59.249 47.2403ZM66.3848 54.2312C65.8458 53.2497 66.8249 51.9489 67.9405 52.1306C68.4959 52.1214 68.8843 52.5488 69.2398 52.9074C69.3127 53.489 69.4352 54.1829 68.9409 54.6311C68.2698 55.4608 66.7494 55.224 66.3848 54.2312ZM25.4824 52.4038C26.525 51.7258 28.0255 52.737 27.7911 53.9277C27.6664 54.9807 26.3083 55.5825 25.4138 54.985C24.4538 54.4426 24.4891 52.8982 25.4824 52.4038ZM46.0819 54.6081C47.4469 54.0198 49.1859 55.1805 49.0565 56.649C49.1577 58.2717 47.0068 59.3955 45.6722 58.4211C44.1897 57.5843 44.4368 55.1227 46.0819 54.6081ZM36.5409 56.7822C37.7036 56.1846 39.2637 57.2166 39.1579 58.4875C39.1933 59.531 38.1506 60.4204 37.0963 60.2662C36.223 60.2479 35.6536 59.4832 35.3736 58.7561C35.3879 57.9637 35.7219 57.081 36.5409 56.7822ZM55.8672 56.8005C57.0628 56.0788 58.762 57.1153 58.6489 58.4745C58.6796 59.895 56.7592 60.8049 55.6461 59.8718C54.5683 59.1403 54.6998 57.3821 55.8672 56.8005ZM59.228 64.9159C58.6962 64.13 59.3223 63.1831 60.1859 63.0038C60.8803 63.1418 61.6144 63.6518 61.4685 64.438C61.3673 65.5021 59.774 65.8285 59.228 64.9159ZM32.5496 64.2334C32.7613 63.6105 33.2743 62.9914 34.0251 63.1534C35.1195 63.2292 35.4443 64.8403 34.4865 65.3369C33.6251 65.9041 32.6258 65.1273 32.5496 64.2334ZM45.4204 64.9481C45.6299 64.0265 46.8512 63.5783 47.6561 64.0679C48.188 64.2909 48.3433 64.8722 48.4799 65.3663C48.4069 65.6236 48.3417 65.8812 48.2776 66.1385C47.9481 66.52 47.5246 66.9015 46.9761 66.8877C45.9569 67.0044 45.0375 65.879 45.4204 64.9481Z" fill="white"/>
</g>
<defs>
<filter id="filter0_d_7_3179" x="0" y="0" width="94" height="92" filterUnits="userSpaceOnUse" color-interpolation-filters="sRGB">
<feFlood flood-opacity="0" result="BackgroundImageFix"/>
<feColorMatrix in="SourceAlpha" type="matrix" values="0 0 0 0 0 0 0 0 0 0 0 0 0 0 0 0 0 0 127 0" result="hardAlpha"/>
<feOffset dy="4"/>
<feGaussianBlur stdDeviation="2"/>
<feComposite in2="hardAlpha" operator="out"/>
<feColorMatrix type="matrix" values="0 0 0 0 0 0 0 0 0 0 0 0 0 0 0 0 0 0 0.25 0"/>
<feBlend mode="normal" in2="BackgroundImageFix" result="effect1_dropShadow_7_3179"/>
<feBlend mode="normal" in="SourceGraphic" in2="effect1_dropShadow_7_3179" result="shape"/>
</filter>
</defs>
</svg>
