<svg width="92" height="92" viewBox="0 0 92 92" fill="none" xmlns="http://www.w3.org/2000/svg">
<g filter="url(#filter0_d_7_2665)">
<circle cx="46" cy="42" r="42" fill="#F6F6F6"/>
<path d="M45.997 15L45.6256 16.2306V51.9366L45.997 52.2981L62.9896 42.501L45.997 15Z" fill="#343434"/>
<path d="M45.993 15L29 42.501L45.993 52.2981V34.9674V15Z" fill="#8C8C8C"/>
<path d="M45.9971 55.4359L45.7877 55.6849V68.4039L45.9971 69L63 45.6439L45.9971 55.4359Z" fill="#3C3C3B"/>
<path d="M45.993 69V55.4359L29 45.6439L45.993 69Z" fill="#8C8C8C"/>
<path d="M45.9905 52.2975L62.983 42.5005L45.9905 34.9668V52.2975Z" fill="#141414"/>
<path d="M29 42.5005L45.993 52.2975V34.9668L29 42.5005Z" fill="#393939"/>
</g>
<defs>
<filter id="filter0_d_7_2665" x="0" y="0" width="92" height="92" filterUnits="userSpaceOnUse" color-interpolation-filters="sRGB">
<feFlood flood-opacity="0" result="BackgroundImageFix"/>
<feColorMatrix in="SourceAlpha" type="matrix" values="0 0 0 0 0 0 0 0 0 0 0 0 0 0 0 0 0 0 127 0" result="hardAlpha"/>
<feOffset dy="4"/>
<feGaussianBlur stdDeviation="2"/>
<feComposite in2="hardAlpha" operator="out"/>
<feColorMatrix type="matrix" values="0 0 0 0 0 0 0 0 0 0 0 0 0 0 0 0 0 0 0.25 0"/>
<feBlend mode="normal" in2="BackgroundImageFix" result="effect1_dropShadow_7_2665"/>
<feBlend mode="normal" in="SourceGraphic" in2="effect1_dropShadow_7_2665" result="shape"/>
</filter>
</defs>
</svg>
