<svg width="92" height="92" viewBox="0 0 92 92" fill="none" xmlns="http://www.w3.org/2000/svg">
<g filter="url(#filter0_d_7_2652)">
<circle cx="46" cy="42" r="42" fill="white"/>
<g clip-path="url(#clip0_7_2652)">
<path d="M59.0896 33.3975C58.1701 32.8721 56.9881 32.8721 55.9373 33.3975L48.5821 37.7318L43.591 40.49L36.3672 44.8244C35.4478 45.3497 34.2657 45.3497 33.2149 44.8244L27.5672 41.4094C26.6478 40.8841 25.991 39.8333 25.991 38.6512V32.0841C25.991 31.0333 26.5164 29.9826 27.5672 29.3259L33.2149 26.0423C34.1343 25.5169 35.3164 25.5169 36.3672 26.0423L42.0149 29.4572C42.9343 29.9826 43.591 31.0333 43.591 32.2154V36.5497L48.5821 33.6602V29.1945C48.5821 28.1438 48.0567 27.093 47.006 26.4363L36.4985 20.2632C35.5791 19.7378 34.397 19.7378 33.3463 20.2632L22.5761 26.5676C21.5254 27.093 21 28.1438 21 29.1945V41.5408C21 42.5915 21.5254 43.6423 22.5761 44.299L33.2149 50.4721C34.1343 50.9975 35.3164 50.9975 36.3672 50.4721L43.591 46.2691L48.5821 43.3796L55.806 39.1766C56.7254 38.6512 57.9075 38.6512 58.9582 39.1766L64.606 42.4602C65.5254 42.9856 66.1821 44.0363 66.1821 45.2184V51.7856C66.1821 52.8363 65.6567 53.8871 64.606 54.5438L59.0896 57.8273C58.1701 58.3527 56.9881 58.3527 55.9373 57.8273L50.2896 54.5438C49.3701 54.0184 48.7134 52.9676 48.7134 51.7856V47.5826L43.7224 50.4721V54.8065C43.7224 55.8572 44.2478 56.9079 45.2985 57.5647L55.9373 63.7378C56.8567 64.2632 58.0388 64.2632 59.0896 63.7378L69.7284 57.5647C70.6478 57.0393 71.3045 55.9885 71.3045 54.8065V42.3288C71.3045 41.2781 70.7791 40.2273 69.7284 39.5706L59.0896 33.3975Z" fill="#8247E5"/>
</g>
</g>
<defs>
<filter id="filter0_d_7_2652" x="0" y="0" width="92" height="92" filterUnits="userSpaceOnUse" color-interpolation-filters="sRGB">
<feFlood flood-opacity="0" result="BackgroundImageFix"/>
<feColorMatrix in="SourceAlpha" type="matrix" values="0 0 0 0 0 0 0 0 0 0 0 0 0 0 0 0 0 0 127 0" result="hardAlpha"/>
<feOffset dy="4"/>
<feGaussianBlur stdDeviation="2"/>
<feComposite in2="hardAlpha" operator="out"/>
<feColorMatrix type="matrix" values="0 0 0 0 0 0 0 0 0 0 0 0 0 0 0 0 0 0 0.25 0"/>
<feBlend mode="normal" in2="BackgroundImageFix" result="effect1_dropShadow_7_2652"/>
<feBlend mode="normal" in="SourceGraphic" in2="effect1_dropShadow_7_2652" result="shape"/>
</filter>
<clipPath id="clip0_7_2652">
<rect width="50.4358" height="44" fill="white" transform="translate(21 20)"/>
</clipPath>
</defs>
</svg>
