<svg width="92" height="92" viewBox="0 0 92 92" fill="none" xmlns="http://www.w3.org/2000/svg">
<g filter="url(#filter0_d_7_2630)">
<circle cx="46" cy="42" r="42" fill="black"/>
<g clip-path="url(#clip0_7_2630)">
<path d="M66.7838 53.1719L59.8504 60.4961C59.6997 60.6552 59.5173 60.782 59.3146 60.8687C59.112 60.9554 58.8934 61.0001 58.6725 61H25.8049C25.6481 61 25.4947 60.9548 25.3635 60.8702C25.2324 60.7854 25.1292 60.6649 25.0667 60.5232C25.0042 60.3815 24.9851 60.2249 25.0117 60.0727C25.0383 59.9204 25.1094 59.7792 25.2164 59.6662L32.155 52.342C32.3053 52.1833 32.4871 52.0567 32.6891 51.9701C32.8911 51.8834 33.109 51.8385 33.3293 51.8381H66.1951C66.3519 51.8381 66.5053 51.8832 66.6366 51.9679C66.7676 52.0526 66.8707 52.1733 66.9335 52.3149C66.9958 52.4566 67.015 52.6132 66.9884 52.7654C66.9618 52.9176 66.8906 53.0589 66.7838 53.1719ZM59.8504 38.4229C59.6997 38.2638 59.5173 38.137 59.3146 38.0503C59.112 37.9636 58.8934 37.9189 58.6725 37.9191H25.8049C25.6481 37.9191 25.4947 37.9642 25.3635 38.0489C25.2324 38.1336 25.1292 38.2542 25.0667 38.3959C25.0042 38.5376 24.9851 38.6941 25.0117 38.8464C25.0383 38.9986 25.1094 39.1399 25.2164 39.2528L32.155 46.5771C32.3053 46.7357 32.4871 46.8623 32.6891 46.949C32.8911 47.0357 33.109 47.0806 33.3293 47.0809H66.1951C66.3519 47.0809 66.5053 47.0358 66.6366 46.9511C66.7676 46.8664 66.8707 46.7458 66.9335 46.6041C66.9958 46.4624 67.015 46.3059 66.9884 46.1536C66.9618 46.0014 66.8906 45.8601 66.7838 45.7472L59.8504 38.4229ZM25.8049 33.1619H58.6725C58.8934 33.162 59.112 33.1173 59.3146 33.0306C59.5173 32.944 59.6997 32.8171 59.8504 32.658L66.7838 25.3338C66.8906 25.2208 66.9618 25.0796 66.9884 24.9273C67.015 24.7751 66.9958 24.6185 66.9335 24.4768C66.8707 24.3352 66.7676 24.2146 66.6366 24.1298C66.5053 24.0451 66.3519 24 66.1951 24H33.3293C33.109 24.0004 32.8911 24.0453 32.6891 24.132C32.4871 24.2186 32.3053 24.3452 32.155 24.5039L25.2182 31.8281C25.1113 31.941 25.0402 32.0821 25.0135 32.2341C24.9869 32.3862 25.0058 32.5427 25.0681 32.6843C25.1304 32.8259 25.2333 32.9465 25.3642 33.0313C25.4951 33.1162 25.6482 33.1615 25.8049 33.1619Z" fill="url(#paint0_linear_7_2630)"/>
</g>
</g>
<defs>
<filter id="filter0_d_7_2630" x="0" y="0" width="92" height="92" filterUnits="userSpaceOnUse" color-interpolation-filters="sRGB">
<feFlood flood-opacity="0" result="BackgroundImageFix"/>
<feColorMatrix in="SourceAlpha" type="matrix" values="0 0 0 0 0 0 0 0 0 0 0 0 0 0 0 0 0 0 127 0" result="hardAlpha"/>
<feOffset dy="4"/>
<feGaussianBlur stdDeviation="2"/>
<feComposite in2="hardAlpha" operator="out"/>
<feColorMatrix type="matrix" values="0 0 0 0 0 0 0 0 0 0 0 0 0 0 0 0 0 0 0.25 0"/>
<feBlend mode="normal" in2="BackgroundImageFix" result="effect1_dropShadow_7_2630"/>
<feBlend mode="normal" in="SourceGraphic" in2="effect1_dropShadow_7_2630" result="shape"/>
</filter>
<linearGradient id="paint0_linear_7_2630" x1="28.5453" y1="61.8818" x2="62.4304" y2="23.1017" gradientUnits="userSpaceOnUse">
<stop offset="0.08" stop-color="#9945FF"/>
<stop offset="0.3" stop-color="#8752F3"/>
<stop offset="0.5" stop-color="#5497D5"/>
<stop offset="0.6" stop-color="#43B4CA"/>
<stop offset="0.72" stop-color="#28E0B9"/>
<stop offset="0.97" stop-color="#19FB9B"/>
</linearGradient>
<clipPath id="clip0_7_2630">
<rect width="42" height="37" fill="white" transform="translate(25 24)"/>
</clipPath>
</defs>
</svg>
