<svg width="92" height="92" viewBox="0 0 92 92" fill="none" xmlns="http://www.w3.org/2000/svg">
<g filter="url(#filter0_d_7_2660)">
<circle cx="46" cy="42" r="42" fill="white"/>
<path fill-rule="evenodd" clip-rule="evenodd" d="M58.4057 37.1897L58.4047 37.1921C60.6468 40.1591 61.9869 43.9169 61.9869 48.0042C61.9869 52.1522 60.6068 55.9611 58.3041 58.9482L58.1059 59.2054L58.0533 58.8785C58.0085 58.6005 57.9561 58.3199 57.895 58.037C56.7425 52.6936 52.9878 48.1117 46.8081 44.4017C42.6351 41.9033 40.2464 38.8948 39.6192 35.4768C39.2142 33.2665 39.5153 31.0464 40.0973 29.1448C40.679 27.2439 41.5444 25.6512 42.2797 24.6923L44.684 21.5896C45.1056 21.0456 45.8946 21.0456 46.3162 21.5896L58.4057 37.1897ZM62.208 34.0903L46.0956 13.2977C45.788 12.9008 45.212 12.9008 44.9044 13.2977L28.7915 34.0894L28.7395 34.1592C25.7744 38.042 24 42.9765 24 48.348C24 60.8581 33.6257 71 45.5 71C57.3744 71 67 60.8581 67 48.348C67 42.9765 65.2256 38.042 62.2606 34.1592L62.208 34.0903ZM32.6468 37.1226L34.0887 35.2621L34.1322 35.6053C34.1667 35.8773 34.2085 36.1507 34.2582 36.4252C35.1907 41.5885 38.5219 45.8937 44.0913 49.2281C48.9325 52.1358 51.7512 55.4793 52.5633 59.1465C52.9021 60.6769 52.9626 62.1826 52.8158 63.499L52.8068 63.5806L52.7369 63.6165C50.5519 64.743 48.0956 65.3752 45.4995 65.3752C36.3941 65.3752 29.0122 57.5982 29.0122 48.0042C29.0122 43.8851 30.373 40.1002 32.6468 37.1226Z" fill="#4DA1FE"/>
</g>
<defs>
<filter id="filter0_d_7_2660" x="0" y="0" width="92" height="92" filterUnits="userSpaceOnUse" color-interpolation-filters="sRGB">
<feFlood flood-opacity="0" result="BackgroundImageFix"/>
<feColorMatrix in="SourceAlpha" type="matrix" values="0 0 0 0 0 0 0 0 0 0 0 0 0 0 0 0 0 0 127 0" result="hardAlpha"/>
<feOffset dy="4"/>
<feGaussianBlur stdDeviation="2"/>
<feComposite in2="hardAlpha" operator="out"/>
<feColorMatrix type="matrix" values="0 0 0 0 0 0 0 0 0 0 0 0 0 0 0 0 0 0 0.25 0"/>
<feBlend mode="normal" in2="BackgroundImageFix" result="effect1_dropShadow_7_2660"/>
<feBlend mode="normal" in="SourceGraphic" in2="effect1_dropShadow_7_2660" result="shape"/>
</filter>
</defs>
</svg>
